<svg aria-hidden="true" style="position: absolute; width: 0; height: 0; overflow: hidden;" version="1.1" xmlns="http://www.w3.org/2000/svg" xmlns:xlink="http://www.w3.org/1999/xlink">
<defs>
<symbol id="icon-arrow-right" viewBox="0 0 37 32">
<path fill="#fefefe" style="fill: var(--color1, #fefefe)" d="M34.667 5.333v16c0 2.946-2.388 5.333-5.333 5.333h-21.333c-2.946 0-5.333-2.388-5.333-5.333v-16c0-2.946 2.388-5.333 5.333-5.333h21.333c2.946 0 5.333 2.388 5.333 5.333z"></path>
<path fill="#2c2c2c" style="fill: var(--color2, #2c2c2c)" d="M25.7 12.73l-9.288-8.85c-0.155-0.148-0.361-0.23-0.575-0.23s-0.42 0.082-0.575 0.23l-0.010 0.010c-0.075 0.072-0.135 0.158-0.176 0.253s-0.062 0.198-0.062 0.302 0.021 0.207 0.062 0.302c0.041 0.096 0.101 0.182 0.176 0.253l8.747 8.333-8.747 8.33c-0.075 0.072-0.135 0.158-0.176 0.253s-0.062 0.198-0.062 0.302 0.021 0.207 0.062 0.302c0.041 0.096 0.101 0.182 0.176 0.253l0.010 0.010c0.155 0.148 0.361 0.23 0.575 0.23s0.42-0.082 0.575-0.23l9.288-8.85c0.082-0.078 0.147-0.171 0.191-0.275s0.067-0.215 0.067-0.328c0-0.113-0.023-0.225-0.067-0.328s-0.109-0.197-0.191-0.275z"></path>
</symbol>
<symbol id="icon-arrow-left" viewBox="0 0 37 32">
<path fill="#fefefe" style="fill: var(--color1, #fefefe)" d="M2.667 21.333v-16c0-2.946 2.388-5.333 5.333-5.333h21.333c2.946 0 5.333 2.388 5.333 5.333v16c0 2.946-2.388 5.333-5.333 5.333h-21.333c-2.946 0-5.333-2.388-5.333-5.333z"></path>
<path fill="#2c2c2c" style="fill: var(--color2, #2c2c2c)" d="M11.634 13.937l9.288 8.85c0.155 0.148 0.361 0.23 0.575 0.23s0.42-0.082 0.575-0.23l0.010-0.010c0.075-0.072 0.135-0.158 0.176-0.253s0.062-0.198 0.062-0.302-0.021-0.207-0.062-0.302c-0.041-0.096-0.101-0.182-0.176-0.253l-8.747-8.333 8.747-8.33c0.075-0.072 0.135-0.158 0.176-0.253s0.062-0.198 0.062-0.302-0.021-0.207-0.062-0.302c-0.041-0.096-0.101-0.182-0.176-0.253l-0.010-0.010c-0.155-0.148-0.361-0.23-0.575-0.23s-0.42 0.082-0.575 0.23l-9.288 8.85c-0.082 0.078-0.147 0.171-0.191 0.275s-0.067 0.215-0.067 0.328c0 0.113 0.023 0.225 0.067 0.328s0.109 0.197 0.191 0.275z"></path>
</symbol>
<symbol id="icon-touch" viewBox="0 0 32 32">
<path d="M15.5 1.333c2.022 0 3.75 0.706 5.183 2.117 1.434 1.411 2.15 3.128 2.15 5.15 0 1.156-0.25 2.244-0.75 3.267-0.514 1.040-1.229 1.91-2.099 2.588l-0.017 0.012h-1.134v-1.667c0.627-0.495 1.129-1.12 1.471-1.836l0.013-0.031c0.326-0.676 0.516-1.47 0.516-2.309 0-0.009-0-0.017-0-0.026v0.001c0-1.467-0.522-2.711-1.566-3.733-1.045-1.023-2.3-1.534-3.767-1.534s-2.722 0.511-3.767 1.534c-1.043 1.022-1.566 2.266-1.566 3.733 0 0.822 0.172 1.6 0.516 2.333 0.355 0.747 0.857 1.372 1.473 1.859l0.011 0.008v2.4c-1.228-0.632-2.224-1.564-2.916-2.701l-0.018-0.032c-0.67-1.086-1.066-2.402-1.066-3.81 0-0.020 0-0.040 0-0.060l-0 0.003c0-2.022 0.716-3.739 2.15-5.15 1.433-1.411 3.16-2.117 5.183-2.117zM14.233 29.333c-0.377 0-0.733-0.072-1.066-0.216-0.337-0.145-0.624-0.342-0.867-0.584l-6.867-6.866 1.867-1.934c0.311-0.31 0.661-0.55 1.050-0.716 0.214-0.095 0.464-0.151 0.727-0.151 0.174 0 0.343 0.024 0.503 0.070l-0.013-0.003 2.6 0.6v-10.866c0-0.934 0.322-1.723 0.966-2.367s1.434-0.967 2.367-0.967 1.722 0.323 2.367 0.967c0.644 0.644 0.966 1.433 0.966 2.367v5.733h0.867c0.111 0 0.211 0.022 0.3 0.067s0.189 0.088 0.3 0.133l4.933 2.4c0.534 0.244 0.928 0.639 1.184 1.183 0.255 0.545 0.327 1.106 0.216 1.684l-1.2 7.266c-0.106 0.647-0.446 1.2-0.928 1.58l-0.005 0.004c-0.462 0.383-1.061 0.616-1.714 0.616-0.007 0-0.013-0-0.020-0h-8.533zM13.967 27.333h9.366l1.434-8.3-6.1-3.033h-1.834v-7.333c0-0.4-0.122-0.723-0.366-0.967-0.245-0.244-0.567-0.367-0.967-0.367s-0.722 0.123-0.967 0.367c-0.244 0.244-0.366 0.567-0.366 0.967v13.3l-5.134-1.1-0.766 0.766 5.7 5.7zM23.333 27.333v0z"></path>
</symbol>
<symbol id="icon-rocket" viewBox="0 0 32 32">
<path d="M7.233 13.633l3.534 1.5c0.4-0.8 0.827-1.588 1.283-2.366s0.939-1.522 1.45-2.234l-2.633-0.533-3.634 3.633zM12.367 16.333l4.433 4.434c1.383-0.632 2.553-1.289 3.663-2.027l-0.096 0.060c1.11-0.733 2.010-1.444 2.7-2.133 1.8-1.8 3.122-3.645 3.966-5.534s1.3-4.022 1.367-6.4c-2.378 0.067-4.511 0.523-6.4 1.367s-3.733 2.167-5.533 3.967c-0.69 0.689-1.4 1.589-2.134 2.7-0.678 1.014-1.334 2.183-1.899 3.404l-0.067 0.162zM20 13.133c-0.444-0.444-0.667-0.994-0.667-1.65 0-0.655 0.223-1.205 0.667-1.65s0.994-0.666 1.65-0.666 1.206 0.222 1.65 0.666c0.444 0.445 0.667 0.995 0.667 1.65s-0.223 1.206-0.667 1.65c-0.444 0.445-0.994 0.667-1.65 0.667s-1.206-0.222-1.65-0.667zM19.5 25.9l3.633-3.633-0.533-2.634c-0.711 0.512-1.456 0.995-2.233 1.45-0.572 0.349-1.347 0.776-2.137 1.178l-0.23 0.106 1.5 3.533zM30.367 2.767c0.2 3.022-0.178 5.777-1.134 8.266-0.955 2.49-2.533 4.834-4.733 7.034l-0.067 0.066-0.066 0.067 0.733 3.667c0.067 0.333 0.050 0.655-0.050 0.966-0.1 0.312-0.272 0.59-0.517 0.834l-5.7 5.733-2.833-6.6-5.667-5.667-6.6-2.833 5.734-5.7c0.244-0.244 0.522-0.417 0.833-0.517s0.633-0.116 0.967-0.050l3.666 0.734c0.019-0.020 0.041-0.036 0.066-0.049l0.001-0.001c0.026-0.014 0.048-0.030 0.067-0.050l0-0c2.2-2.2 4.544-3.784 7.033-4.75s5.244-1.35 8.267-1.15zM5.967 21.167c0.777-0.778 1.727-1.173 2.85-1.184 1.122-0.010 2.072 0.373 2.85 1.15 0.777 0.778 1.16 1.728 1.15 2.85-0.011 1.123-0.406 2.073-1.184 2.85-0.577 0.578-1.472 1.056-2.683 1.434s-3.028 0.733-5.45 1.066c0.333-2.422 0.683-4.244 1.050-5.466s0.839-2.123 1.417-2.7zM7.367 22.6c-0.311 0.333-0.59 0.856-0.834 1.567s-0.455 1.622-0.633 2.733c1.111-0.178 2.022-0.389 2.733-0.633 0.711-0.245 1.234-0.523 1.567-0.834 0.422-0.377 0.639-0.85 0.65-1.416 0.001-0.018 0.001-0.040 0.001-0.061 0-0.555-0.223-1.057-0.584-1.423l0 0c-0.366-0.361-0.869-0.584-1.423-0.584-0.021 0-0.043 0-0.064 0.001l0.003-0c-0.565 0.001-1.071 0.252-1.414 0.648l-0.002 0.002z"></path>
</symbol>
<symbol id="icon-star" viewBox="0 0 34 32">
<path d="M15.421 1.037c0.584-1.383 2.575-1.383 3.159 0l3.449 8.164c0.247 0.583 0.804 0.982 1.443 1.032l8.952 0.707c1.517 0.12 2.132 1.983 0.976 2.958l-6.821 5.752c-0.487 0.411-0.7 1.056-0.551 1.67l2.084 8.6c0.353 1.457-1.257 2.609-2.556 1.828l-7.664-4.609c-0.547-0.329-1.236-0.329-1.783 0l-7.664 4.609c-1.299 0.781-2.909-0.371-2.556-1.828l2.084-8.6c0.149-0.614-0.064-1.259-0.551-1.67l-6.821-5.752c-1.156-0.975-0.541-2.838 0.976-2.958l8.952-0.707c0.639-0.050 1.196-0.449 1.443-1.032l3.449-8.164z"></path>
</symbol>
</defs>
</svg>
